<?xml version="1.0" encoding="UTF-8"?>
<svg id="Layer_1" xmlns="http://www.w3.org/2000/svg" version="1.1" viewBox="0 0 23 23">
  <!-- Generator: Adobe Illustrator 29.3.1, SVG Export Plug-In . SVG Version: 2.1.0 Build 151)  -->
  <defs>
    <style>
      .st0 {
        fill: none;
      }

      .st1 {
        fill: #64d584;
        stroke: #6299ae;
        stroke-linejoin: round;
        stroke-width: 4px;
      }

      .st2 {
        fill: #165c7d;
      }
    </style>
  </defs>
  <rect class="st0" width="23" height="23"/>
  <path class="st1" d="M11,5.2l-4.9,5.5c0,0-.1.2-.1.3,0,.1,0,.2,0,.3l4.9,6.5c0,0,.1.1.2.2,0,0,.2,0,.3,0s.2,0,.3,0c0,0,.2-.1.2-.2l4.9-6.5c0,0,.1-.2,0-.3,0-.1,0-.2-.1-.3l-4.9-5.5c0,0-.1-.1-.2-.1,0,0-.2,0-.3,0s-.2,0-.3,0c0,0-.2,0-.2.1Z"/>
  <path class="st2" d="M11,5.2l-4.9,5.5c0,0-.1.2-.1.3,0,.1,0,.2,0,.3l4.9,6.5c0,0,.1.1.2.2,0,0,.2,0,.3,0s.2,0,.3,0c0,0,.2-.1.2-.2l4.9-6.5c0,0,.1-.2,0-.3,0-.1,0-.2-.1-.3l-4.9-5.5c0,0-.1-.1-.2-.1,0,0-.2,0-.3,0s-.2,0-.3,0c0,0-.2,0-.2.1Z"/>
</svg>