<?xml version="1.0" encoding="UTF-8"?><svg id="Layer_1" xmlns="http://www.w3.org/2000/svg" width="23" height="23" viewBox="0 0 23 23"><rect width="23" height="23" fill="none"/><path d="M11.0371,5.2015l-4.9117,5.4985c-.0758.0839-.1197.1901-.1249.3-.0052.1099.0287.2101.0964.3l4.9096,6.4601c.0558.0742.1298.1346.2157.1764.0859.0417.1811.0635.2778.0635s.192-.0218.2778-.0635c.0859-.0418.1598-.1022.2157-.1764l4.9096-6.4601c.0676-.0899.1016-.1901.0964-.3-.0052-.11-.0491-.2161-.1249-.3l-4.9118-5.4985c-.0569-.0631-.1278-.1139-.2078-.1487-.0799-.0348-.167-.0528-.2551-.0528s-.1751.018-.2551.0528c-.0799.0348-.1508.0855-.2078.1487Z" fill="#64d584" stroke="#64d584" stroke-linejoin="round" stroke-width="4"/><path d="M11.0371,5.2015l-4.9117,5.4985c-.0758.0839-.1197.1901-.1249.3-.0052.1099.0287.2101.0964.3l4.9096,6.4601c.0558.0742.1298.1346.2157.1764.0859.0417.1811.0635.2778.0635s.192-.0218.2778-.0635c.0859-.0418.1598-.1022.2157-.1764l4.9096-6.4601c.0676-.0899.1016-.1901.0964-.3-.0052-.11-.0491-.2161-.1249-.3l-4.9118-5.4985c-.0569-.0631-.1278-.1139-.2078-.1487-.0799-.0348-.167-.0528-.2551-.0528s-.1751.018-.2551.0528c-.0799.0348-.1508.0855-.2078.1487Z" fill="#3b7d4b"/></svg>